<?xml version="1.0" encoding="UTF-8" standalone="no"?>
<!-- Created with Inkscape (http://www.inkscape.org/) -->
<svg xmlns:inkscape="http://www.inkscape.org/namespaces/inkscape" xmlns:sodipodi="http://sodipodi.sourceforge.net/DTD/sodipodi-0.dtd" xmlns="http://www.w3.org/2000/svg" xmlns:svg="http://www.w3.org/2000/svg" version="1.1" id="svg2" width="304.46667" height="109.30667" viewBox="0 0 304.46667 109.30667" sodipodi:docname="rauchemedical-logo-horizontal_RM-Color-Horizontal (1).eps">
  <defs id="defs6"></defs>
  <g id="g8" inkscape:groupmode="layer" inkscape:label="ink_ext_XXXXXX" transform="matrix(1.3333333,0,0,-1.3333333,0,109.30667)">
    <g id="g10" transform="scale(0.1)">
      <path d="M 756.848,750 H 87.5469 C 66.375,750 53.1406,725.828 63.7266,706.488 L 231.051,400.852 398.375,95.2188 c 10.305,-18.8243 37.34,-18.8243 47.645,0 l 46.527,84.9842 c 2.328,4.254 2.109,9.453 -0.574,13.496 -43.739,65.996 -87.356,132.086 -131.27,197.953 -5.336,8.008 -2.781,12.914 1.492,19.317 27.461,41.129 54.723,82.41 82.035,123.648 0.504,0.762 1.008,1.524 1.516,2.297 4.024,6.141 -0.023,14.57 -7.098,14.738 -0.742,0.02 -1.472,0.032 -2.207,0.032 -55.675,0.101 -111.355,0.457 -167.027,-0.094 -10.75,-0.106 -17.019,3.531 -22.902,12.844 -15.969,25.261 -32.59,50.058 -49.828,76.039 -4.137,6.226 0.086,14.8 7.293,14.793 l 424.808,-0.379 c 7.153,-0.008 11.344,-8.492 7.25,-14.676 -50.359,-76.035 -100.582,-152.176 -151.387,-227.879 -6.293,-9.375 -6.007,-15.328 0.137,-24.523 19.387,-29.008 38.672,-58.09 57.934,-87.192 3.914,-5.918 12.711,-5.551 16.117,0.672 l 54.508,99.563 167.324,305.636 C 791.254,725.828 778.02,750 756.848,750" style="fill:#4ebab7;fill-opacity:1;fill-rule:nonzero;stroke:none" id="path12"></path>
      <path d="m 1103.14,474.113 c 10.87,8.918 16.31,21.649 16.31,38.176 0,16.531 -5.44,29.207 -16.31,38.016 -10.89,8.812 -26.65,13.211 -47.32,13.211 h -55.47 V 460.738 h 55.47 c 20.67,0 36.43,4.453 47.32,13.375 z m 17.29,-110.609 -49.27,70.152 C 1065.07,433.219 1060.28,433 1056.8,433 h -56.45 v -69.496 h -32.627 v 228.402 h 89.077 c 29.58,0 52.86,-7.074 69.83,-21.211 16.97,-14.136 25.45,-33.605 25.45,-58.406 0,-17.617 -4.36,-32.629 -13.05,-45.023 -8.71,-12.403 -21.1,-21.43 -37.2,-27.086 l 54.16,-76.676 h -35.56" style="fill:#354a73;fill-opacity:1;fill-rule:nonzero;stroke:none" id="path14"></path>
      <path d="m 1293.42,396.621 c 8.92,5.109 15.88,12.289 20.89,21.535 5,9.246 7.5,19.848 7.5,31.817 0,11.961 -2.5,22.558 -7.5,31.812 -5.01,9.238 -11.97,16.367 -20.89,21.367 -8.92,5.004 -18.81,7.512 -29.69,7.512 -11.09,0 -21.04,-2.508 -29.85,-7.512 -8.81,-5 -15.78,-12.129 -20.89,-21.367 -5.11,-9.254 -7.67,-19.851 -7.67,-31.812 0,-11.969 2.56,-22.571 7.67,-31.817 5.11,-9.246 12.08,-16.426 20.89,-21.535 8.81,-5.109 18.76,-7.668 29.85,-7.668 10.88,0 20.77,2.559 29.69,7.668 z m 59.39,139.817 V 363.504 h -30.02 v 27.406 c -6.96,-9.574 -15.77,-16.859 -26.43,-21.863 -10.66,-5.004 -22.41,-7.5 -35.24,-7.5 -16.75,0 -31.76,3.699 -45.03,11.09 -13.27,7.394 -23.65,17.785 -31.16,31.164 -7.5,13.379 -11.25,28.762 -11.25,46.172 0,17.398 3.75,32.734 11.25,46 7.51,13.265 17.89,23.601 31.16,31.004 13.27,7.394 28.28,11.089 45.03,11.089 12.4,0 23.82,-2.336 34.26,-7.007 10.44,-4.688 19.14,-11.59 26.11,-20.727 v 26.106 h 31.32" style="fill:#354a73;fill-opacity:1;fill-rule:nonzero;stroke:none" id="path16"></path>
      <path d="M 1559.09,536.438 V 363.504 h -29.69 v 26.101 c -6.31,-8.921 -14.64,-15.82 -24.97,-20.718 -10.33,-4.895 -21.59,-7.34 -33.77,-7.34 -23.06,0 -41.22,6.363 -54.49,19.09 -13.27,12.722 -19.9,31.48 -19.9,56.281 v 99.52 h 31.32 v -95.93 c 0,-16.75 4.03,-29.422 12.08,-38.016 8.04,-8.59 19.57,-12.887 34.58,-12.887 16.53,0 29.58,5.004 39.16,15.012 9.57,10 14.35,24.145 14.35,42.414 v 89.407 h 31.33" style="fill:#354a73;fill-opacity:1;fill-rule:nonzero;stroke:none" id="path18"></path>
      <path d="m 1636.02,372.965 c -13.81,7.613 -24.63,18.109 -32.46,31.484 -7.83,13.383 -11.75,28.551 -11.75,45.524 0,16.961 3.92,32.14 11.75,45.511 7.83,13.383 18.65,23.825 32.46,31.325 13.81,7.507 29.53,11.257 47.15,11.257 15.67,0 29.64,-3.156 41.93,-9.464 12.29,-6.309 21.81,-15.442 28.55,-27.403 l -23.82,-15.336 c -5.44,8.262 -12.18,14.465 -20.23,18.598 -8.05,4.133 -16.96,6.203 -26.75,6.203 -11.32,0 -21.49,-2.508 -30.51,-7.512 -9.03,-5 -16.1,-12.129 -21.21,-21.367 -5.11,-9.254 -7.67,-19.851 -7.67,-31.812 0,-12.188 2.56,-22.903 7.67,-32.141 5.11,-9.254 12.18,-16.375 21.21,-21.371 9.02,-5.012 19.19,-7.508 30.51,-7.508 9.79,0 18.7,2.067 26.75,6.203 8.05,4.129 14.79,10.324 20.23,18.598 l 23.82,-15.008 c -6.74,-11.973 -16.26,-21.16 -28.55,-27.574 -12.29,-6.422 -26.26,-9.625 -41.93,-9.625 -17.62,0 -33.34,3.805 -47.15,11.418" style="fill:#354a73;fill-opacity:1;fill-rule:nonzero;stroke:none" id="path20"></path>
      <path d="m 1926.16,518.98 c 12.94,-12.726 19.42,-31.375 19.42,-55.96 v -99.516 h -31.33 v 95.934 c 0,16.742 -4.02,29.363 -12.07,37.843 -8.05,8.485 -19.58,12.723 -34.59,12.723 -16.96,0 -30.34,-4.949 -40.13,-14.844 -9.79,-9.902 -14.68,-24.094 -14.68,-42.582 v -89.074 h -31.33 v 242.105 h 31.33 v -93.644 c 6.52,8.269 15.06,14.683 25.61,19.25 10.55,4.566 22.35,6.851 35.4,6.851 21.97,0 39.43,-6.363 52.37,-19.086" style="fill:#354a73;fill-opacity:1;fill-rule:nonzero;stroke:none" id="path22"></path>
      <path d="m 2082.69,603.984 h 39.8 l -54.81,-42.421 h -29.37 z m -57.27,-106.046 c -10.11,-9.137 -16.04,-21.106 -17.78,-35.895 h 110.94 c -1.75,14.566 -7.67,26.48 -17.78,35.727 -10.12,9.246 -22.68,13.871 -37.69,13.871 -15.01,0 -27.57,-4.567 -37.69,-13.703 z m 122.52,-58.407 h -140.3 c 1.96,-15.23 8.65,-27.468 20.07,-36.707 11.42,-9.254 25.61,-13.871 42.58,-13.871 20.66,0 37.3,6.957 49.92,20.883 l 17.29,-20.231 c -7.83,-9.136 -17.57,-16.097 -29.2,-20.882 -11.64,-4.785 -24.64,-7.176 -38.99,-7.176 -18.28,0 -34.48,3.75 -48.62,11.254 -14.14,7.504 -25.07,18 -32.79,31.488 -7.73,13.484 -11.59,28.711 -11.59,45.684 0,16.746 3.76,31.863 11.26,45.351 7.51,13.485 17.83,23.985 31,31.485 13.16,7.507 28,11.257 44.54,11.257 16.53,0 31.27,-3.75 44.21,-11.257 12.94,-7.5 23.06,-18 30.35,-31.485 7.28,-13.488 10.93,-28.929 10.93,-46.328 0,-2.402 -0.22,-5.551 -0.66,-9.465" style="fill:#354a73;fill-opacity:1;fill-rule:nonzero;stroke:none" id="path24"></path>
      <path d="m 1200.4,229.184 -0.09,44.375 -22.01,-36.985 h -4.01 l -22.01,36.719 v -44.109 h -8.36 v 60.902 h 7.14 l 25.41,-42.805 25.06,42.805 h 7.13 l 0.09,-60.902 h -8.35" style="fill:#354a73;fill-opacity:1;fill-rule:nonzero;stroke:none" id="path26"></path>
      <path d="m 1339.35,236.75 v -7.566 h -44.2 v 60.902 h 42.98 v -7.566 h -34.28 v -18.711 h 30.54 v -7.391 h -30.54 V 236.75 h 35.5" style="fill:#354a73;fill-opacity:1;fill-rule:nonzero;stroke:none" id="path28"></path>
      <path d="m 1445.9,236.75 c 4.94,0 9.27,0.957 13.02,2.875 3.73,1.91 6.62,4.594 8.65,8.047 2.03,3.449 3.04,7.437 3.04,11.965 0,4.523 -1.01,8.508 -3.04,11.957 -2.03,3.453 -4.92,6.14 -8.65,8.051 -3.75,1.914 -8.08,2.875 -13.02,2.875 h -16.44 v -45.77 z m -25.14,53.336 h 25.67 c 6.44,0 12.15,-1.273 17.14,-3.824 4.99,-2.559 8.86,-6.137 11.62,-10.746 2.75,-4.614 4.13,-9.907 4.13,-15.879 0,-5.977 -1.38,-11.27 -4.13,-15.879 -2.76,-4.613 -6.63,-8.195 -11.62,-10.75 -4.99,-2.551 -10.7,-3.824 -17.14,-3.824 h -25.67 v 60.902" style="fill:#354a73;fill-opacity:1;fill-rule:nonzero;stroke:none" id="path30"></path>
      <path d="m 1561.5,290.086 h 8.7 v -60.902 h -8.7 v 60.902" style="fill:#354a73;fill-opacity:1;fill-rule:nonzero;stroke:none" id="path32"></path>
      <path d="m 1668.09,232.527 c -4.9,2.7 -8.75,6.411 -11.53,11.145 -2.78,4.726 -4.18,10.047 -4.18,15.965 0,5.914 1.4,11.234 4.18,15.961 2.78,4.726 6.64,8.445 11.57,11.144 4.93,2.696 10.44,4.047 16.53,4.047 4.76,0 9.11,-0.805 13.05,-2.394 3.95,-1.602 7.32,-3.957 10.1,-7.09 l -5.66,-5.485 c -4.58,4.813 -10.29,7.219 -17.14,7.219 -4.52,0 -8.61,-1.016 -12.27,-3.043 -3.65,-2.027 -6.51,-4.832 -8.57,-8.402 -2.05,-3.563 -3.09,-7.551 -3.09,-11.957 0,-4.41 1.04,-8.399 3.09,-11.965 2.06,-3.567 4.92,-6.371 8.57,-8.399 3.66,-2.027 7.75,-3.046 12.27,-3.046 6.79,0 12.5,2.441 17.14,7.312 l 5.66,-5.488 c -2.78,-3.125 -6.17,-5.504 -10.14,-7.129 -3.97,-1.621 -8.34,-2.442 -13.09,-2.442 -6.09,0 -11.59,1.352 -16.49,4.047" style="fill:#354a73;fill-opacity:1;fill-rule:nonzero;stroke:none" id="path34"></path>
      <path d="m 1826.41,251.371 -13.14,29.844 -13.13,-29.844 z m 3.05,-6.969 h -32.37 l -6.7,-15.218 h -8.96 l 27.58,60.902 h 8.61 l 27.67,-60.902 h -9.13 l -6.7,15.218" style="fill:#354a73;fill-opacity:1;fill-rule:nonzero;stroke:none" id="path36"></path>
      <path d="m 1923.47,290.086 h 8.71 V 236.75 h 32.97 v -7.566 h -41.68 v 60.902" style="fill:#354a73;fill-opacity:1;fill-rule:nonzero;stroke:none" id="path38"></path>
      <path d="m 2191.83,524.016 c 1.39,1.132 2.09,2.734 2.09,4.816 0,2.027 -0.7,3.602 -2.09,4.707 -1.4,1.109 -3.34,1.664 -5.85,1.664 h -7.22 v -12.887 h 7.22 c 2.51,0 4.45,0.563 5.85,1.7 z m 4.04,-0.743 c -1.12,-1.539 -2.68,-2.664 -4.71,-3.371 l 6.65,-10.195 h -3.82 l -6.16,9.563 c -0.38,-0.043 -0.93,-0.071 -1.63,-0.071 h -7.37 v -9.492 h -3.68 v 28.613 h 11.05 c 3.49,0 6.25,-0.847 8.28,-2.547 2.03,-1.707 3.05,-4.019 3.05,-6.941 0,-2.172 -0.56,-4.031 -1.66,-5.559 z m 0.31,-18.632 c 3.4,2.011 6.09,4.726 8.08,8.148 1.98,3.426 2.97,7.215 2.97,11.367 0,4.157 -0.97,7.918 -2.9,11.297 -1.94,3.375 -4.59,6.039 -7.97,7.996 -3.38,1.965 -7.16,2.942 -11.37,2.942 -4.2,0 -8.01,-0.993 -11.43,-2.977 -3.43,-1.976 -6.12,-4.684 -8.08,-8.105 -1.96,-3.422 -2.94,-7.184 -2.94,-11.293 0,-4.114 0.98,-7.875 2.94,-11.297 1.96,-3.422 4.64,-6.129 8.04,-8.114 3.4,-1.984 7.18,-2.972 11.33,-2.972 4.16,0 7.93,1.008 11.33,3.008 z m 1.53,41.113 c 3.79,-2.168 6.78,-5.156 8.96,-8.961 2.17,-3.797 3.25,-8.008 3.25,-12.637 0,-4.629 -1.11,-8.863 -3.33,-12.715 -2.22,-3.851 -5.24,-6.878 -9.06,-9.097 -3.83,-2.223 -8.05,-3.332 -12.68,-3.332 -4.63,0 -8.84,1.109 -12.64,3.332 -3.8,2.219 -6.8,5.238 -8.99,9.062 -2.2,3.824 -3.3,8.024 -3.3,12.61 0,4.574 1.1,8.781 3.3,12.605 2.19,3.824 5.2,6.848 9.02,9.063 3.83,2.214 8.08,3.332 12.75,3.332 4.68,0 8.91,-1.09 12.72,-3.262" style="fill:#354a73;fill-opacity:1;fill-rule:nonzero;stroke:none" id="path40"></path>
    </g>
  </g>
</svg>
